<svg width="252" height="40" viewBox="0 0 252 40" fill="none" xmlns="http://www.w3.org/2000/svg">
<path d="M15.0059 25.4275L5.90683 0H0V31.1761H4.7552V9.43447L12.5793 31.1761H17.4294L25.2535 9.43447V31.1761H30.0087V0H24.105L15.0059 25.4275Z" fill="black"/>
<path d="M44.7317 0H34.2627V31.1761H44.7317C53.796 31.1761 59.6522 25.0573 59.6522 15.5881C59.6522 6.1188 53.796 0 44.7317 0ZM39.309 26.7943V4.38187H44.6906C50.9012 4.38187 54.6091 8.57075 54.6091 15.5881C54.6091 22.6054 50.8094 26.7943 44.6906 26.7943H39.309Z" fill="black"/>
<path d="M74.4628 8.65299C69.0622 8.65299 65.1517 11.4846 64.5 15.8696L64.4937 15.9139V17.1921H68.961L69.0369 16.6701C69.521 13.288 72.6468 12.7818 74.466 12.7818C76.3991 12.7818 79.6388 13.3576 79.6388 17.2079V17.5275L71.8685 18.2646C66.8191 18.7519 64.0381 21.2133 64.0381 25.1965C64.0381 29.1798 67.3348 31.6728 72.052 31.6728C75.3107 31.6728 78.0379 30.6066 79.7211 28.7115V31.173H84.1852V16.9991C84.1852 11.8484 80.4614 8.64983 74.4628 8.64983V8.65299ZM72.5487 27.5409C71.3813 27.5409 68.6636 27.2752 68.6636 24.82C68.6636 23.8139 69.097 22.6117 72.4823 22.2637L79.6262 21.5803C79.4047 25.9685 75.7189 27.5378 72.5487 27.5378V27.5409Z" fill="black"/>
<path d="M91.5519 0H87.1289V31.1761H91.5519V0Z" fill="black"/>
<path d="M110.644 11.5321C109.597 10.257 107.56 8.65616 103.921 8.65616C101.102 8.65616 98.5587 9.66858 96.7522 11.5067C94.7843 13.5094 93.7434 16.4043 93.7434 19.875C93.7434 23.3457 94.7843 26.2406 96.7522 28.2433C98.5587 30.0815 101.106 31.0939 103.921 31.0939C107.186 31.0939 109.186 29.8252 110.385 28.4869V29.1133C110.385 33.7262 108.48 35.7858 104.212 35.7858C100.258 35.7858 99.0396 33.8844 98.4163 32.2297L98.2676 31.8342H93.7402V33.1409L93.7592 33.2136C94.0376 34.3463 95.8537 40 104.212 40C111.125 40 114.931 36.1338 114.931 29.1133V9.15288H111.375L110.644 11.5321ZM104.504 26.8765C100.666 26.8765 98.372 24.2569 98.372 19.8719C98.372 15.4868 100.663 12.8672 104.504 12.8672C108.344 12.8672 110.635 15.4868 110.635 19.8719C110.635 24.2569 108.344 26.8765 104.504 26.8765Z" fill="black"/>
<path d="M127.748 8.65303C121.161 8.65303 116.738 13.2785 116.738 20.163C116.738 27.0474 121.164 31.6729 127.748 31.6729C134.332 31.6729 138.758 27.0474 138.758 20.163C138.758 13.2785 134.332 8.65303 127.748 8.65303ZM127.748 27.4587C123.813 27.4587 121.367 24.6619 121.367 20.163C121.367 15.664 123.813 12.8672 127.748 12.8672C131.684 12.8672 134.13 15.664 134.13 20.163C134.13 24.6619 131.684 27.4587 127.748 27.4587Z" fill="black"/>
<path d="M146.513 10.3962C145.963 10.7031 145.444 11.0764 144.963 11.5099V9.52617H140.581V31.1729H145.004V18.9543C145.004 17.9039 145.241 16.9548 145.706 16.148C146.203 15.3286 146.855 14.6863 147.652 14.2371C148.468 13.7657 149.389 13.5284 150.386 13.5284H153.116V9.31419H150.8C149.263 9.31419 147.82 9.67487 146.51 10.3899L146.513 10.3962Z" fill="black"/>
<path d="M159.118 9.52618H154.695V31.1729H159.118V9.52618Z" fill="black"/>
<path d="M159.366 1.78754H154.446V6.87494H159.366V1.78754Z" fill="black"/>
<path d="M168.713 4.11926H164.29V9.52937H160.962V13.6613H164.29V24.4942C164.29 25.7565 164.581 26.9208 165.163 27.9617C165.742 28.9678 166.562 29.7746 167.612 30.3599C168.64 30.904 169.843 31.1793 171.184 31.1793H173.915V26.9651H171.434C170.564 26.9651 169.896 26.7341 169.419 26.2786C168.944 25.7818 168.713 25.1174 168.713 24.2442V13.6613H173.915V9.52937H168.713V4.11926Z" fill="black"/>
<path d="M187.153 8.65301C184.122 8.65301 181.841 9.60215 180.357 11.4815V0H175.811V31.1761H180.357V19.4574C180.357 15.528 182.878 12.7849 186.488 12.7849C188.096 12.7849 190.788 13.3481 190.788 17.1257V31.173H195.334V16.6258C195.334 11.782 192.123 8.65301 187.153 8.65301Z" fill="black"/>
<path d="M221.784 8.65303C218.823 8.65303 216.279 9.94386 214.71 12.2186C213.438 9.94386 211.053 8.65303 208.057 8.65303C205.551 8.65303 203.415 9.6085 201.925 11.3707V9.15291H197.461V31.173H202.007V19.3309C202.007 15.2306 203.972 12.785 207.266 12.785C209.869 12.785 211.192 14.2023 211.192 17.0023V31.1762H215.738V19.334C215.738 15.2337 217.703 12.7881 220.996 12.7881C223.6 12.7881 224.923 14.2055 224.923 17.0055V31.1793H229.469V16.591C229.469 10.7443 225.502 8.65936 221.787 8.65936L221.784 8.65303Z" fill="black"/>
<path d="M244.442 18.271L240.073 17.6066C237.567 17.2206 236.805 16.6922 236.805 15.3381C236.805 13.8353 238.845 12.7849 241.772 12.7849C244.075 12.7849 246.856 13.386 247.03 16.2493L247.065 16.8219H251.577V15.5501L251.57 15.5121C251.023 11.2188 247.359 8.65616 241.772 8.65616C236.185 8.65616 232.258 11.4656 232.258 15.3413C232.258 17.8154 233.353 20.9317 238.558 21.7258L242.924 22.3902C245.553 22.7984 247.277 23.1844 247.277 24.7852C247.277 26.5127 245.249 27.5472 241.854 27.5472C237.912 27.5472 235.805 26.1678 235.596 23.4501L235.552 22.887H231.05V24.1588L231.056 24.1968C231.657 28.952 235.593 31.6792 241.854 31.6792C248.115 31.6792 251.823 28.9108 251.823 24.7884C251.823 21.2101 249.34 19.0208 244.442 18.2773V18.271Z" fill="black"/>
</svg>
